<?xml version="1.0" encoding="UTF-8" standalone="no"?><!DOCTYPE svg PUBLIC "-//W3C//DTD SVG 1.1//EN" "http://www.w3.org/Graphics/SVG/1.1/DTD/svg11.dtd"><svg width="100%" height="100%" viewBox="0 0 1342 296" version="1.1" xmlns="http://www.w3.org/2000/svg" xmlns:xlink="http://www.w3.org/1999/xlink" xml:space="preserve" xmlns:serif="http://www.serif.com/" style="fill-rule:evenodd;clip-rule:evenodd;stroke-linejoin:round;stroke-miterlimit:2;"><rect id="Artboard1" x="0" y="0" width="1341.67" height="295.833" style="fill:none;"/><g transform="matrix(4.16667,0,0,4.16667,-2011.74,-1340.16)"><g transform="matrix(100,0,0,100,483.108,391.878)"><path d="M0.434,-0.072l0,-0.588c0,-0.008 -0.008,-0.011 -0.015,-0.009c-0.015,0.01 -0.036,0.021 -0.065,0.025c-0.02,0.003 -0.038,0.003 -0.052,0.001c-0.009,-0.001 -0.014,0.009 -0.009,0.016c0.026,0.037 0.016,0.114 0.006,0.155c-0.007,-0.003 -0.057,-0.026 -0.115,-0.026c-0.088,-0 -0.145,0.051 -0.169,0.134c-0.047,0.16 0.018,0.393 0.218,0.364c0.059,-0.008 0.056,-0.037 0.1,-0.037c0.02,-0 0.05,0.006 0.099,0.022c0.003,-0 0.004,0.001 0.006,0.001c0.007,0.003 0.014,-0.005 0.01,-0.012c-0.007,-0.015 -0.011,-0.031 -0.014,-0.046Zm-0.163,0.025c-0.039,0.012 -0.099,-0.07 -0.133,-0.182c-0.035,-0.112 -0.031,-0.213 0.008,-0.225c0.039,-0.012 0.099,0.069 0.134,0.182c0.034,0.112 0.03,0.213 -0.009,0.225Z" style="fill:#e8e5e4;fill-rule:nonzero;"/></g><g transform="matrix(100,0,0,100,533.108,391.878)"><path d="M0.135,-0.282l0.178,0c0.06,0 0.095,-0.05 0.088,-0.107c-0.008,-0.064 -0.085,-0.11 -0.169,-0.11c-0.092,0 -0.194,0.055 -0.223,0.201c-0.049,0.249 0.178,0.317 0.279,0.301c0.102,-0.017 0.114,-0.104 0.114,-0.104c0,0 -0.034,0.055 -0.101,0.055c-0.118,0 -0.164,-0.136 -0.166,-0.236Zm0.053,-0.188c0.111,0 0.147,0.164 -0.006,0.164l-0.051,0c0,0 -0.015,-0.164 0.057,-0.164Z" style="fill:#e8e5e4;fill-rule:nonzero;"/></g><g transform="matrix(100,0,0,100,575.308,391.878)"><path d="M0.017,-0.5c-0.01,0 -0.016,0.012 -0.009,0.019l0.017,0.017c0.002,0.002 0.002,0.003 0.002,0.005l0.152,0.445c0.003,0.009 0.01,0.014 0.019,0.014l0.054,-0c0.008,-0 0.015,-0.005 0.019,-0.011c0.09,-0.189 0.285,-0.466 0.107,-0.51c-0.01,-0.002 -0.019,-0.003 -0.028,-0.003c-0.048,0 -0.071,0.033 -0.081,0.053c-0.005,0.01 0.002,0.022 0.013,0.024c0.157,0.029 0.028,0.294 -0.007,0.366l-0.129,-0.374c-0.003,-0.012 -0.001,-0.021 0.003,-0.029c0.004,-0.007 -0.002,-0.016 -0.01,-0.016l-0.122,0Z" style="fill:#e8e5e4;fill-rule:nonzero;"/></g><g transform="matrix(100,0,0,100,624.408,391.878)"><path d="M0.372,-0.377c0.085,-0.051 0.096,-0.129 0.096,-0.129c0.013,-0.076 -0.022,-0.124 -0.06,-0.154c-0.035,-0.026 -0.078,-0.04 -0.121,-0.04l-0.27,0c-0.01,0 -0.017,0.01 -0.013,0.019l0.018,0.037c0.001,0.002 0.001,0.004 0.001,0.006l0,0.585c0,0.002 -0.001,0.004 -0.002,0.006l-0.015,0.027c-0.005,0.009 0.002,0.02 0.012,0.02l0.282,0c0,0 0.181,0.002 0.207,-0.157c0.026,-0.159 -0.135,-0.22 -0.135,-0.22Zm-0.211,-0.292c0.05,0 0.092,-0.007 0.131,0.032c0.001,0.001 0.002,0.002 0.003,0.003c0.129,0.134 -0.106,0.213 -0.134,0.3l-0,-0.335Zm-0,0.654l-0,-0.281c-0,0 0.063,-0.066 0.118,-0.066c0.035,0 0.066,0.027 0.076,0.115c0.021,0.184 -0.194,0.232 -0.194,0.232Z" style="fill:#e8e5e4;fill-rule:nonzero;"/></g><g transform="matrix(100,0,0,100,679.408,391.878)"><path d="M0.166,-0.45l0,-0.039c0,-0.007 -0.008,-0.011 -0.014,-0.007c-0.043,0.028 -0.101,0.028 -0.135,0.024c-0.007,-0.001 -0.012,0.007 -0.008,0.013c0.011,0.017 0.009,0.034 0.009,0.034l0,0.382c0,0.003 -0.001,0.006 -0.002,0.008l-0.01,0.014c-0.006,0.011 0.001,0.023 0.012,0.023l0.148,-0c0.012,-0 0.02,-0.013 0.013,-0.023l-0.01,-0.014c-0.002,-0.002 -0.003,-0.005 -0.003,-0.008l0,-0.347c0.02,-0.04 0.05,-0.073 0.098,-0.066c0.084,0.013 0.038,0.111 0.01,0.136c-0.007,0.006 -0.006,0.018 0.002,0.022c0.022,0.012 0.041,0.017 0.058,0.017c0.112,-0 0.113,-0.235 -0.022,-0.235c-0.038,-0 -0.086,0.018 -0.146,0.066Z" style="fill:#e8e5e4;fill-rule:nonzero;"/></g><g transform="matrix(100,0,0,100,725.008,391.878)"><path d="M0.071,-0.444c0.04,0 0.072,-0.032 0.072,-0.071c0,-0.04 -0.032,-0.071 -0.072,-0.071c-0.038,0 -0.07,0.031 -0.07,0.071c-0,0.039 0.032,0.071 0.07,0.071Zm-0.059,0.414l-0.005,0.008c-0.006,0.009 -0,0.022 0.012,0.022l0.104,0c0.012,0 0.019,-0.013 0.013,-0.022l-0.006,-0.008c-0.002,-0.003 -0.002,-0.006 -0.002,-0.009l0,-0.371c0,-0.007 -0.007,-0.011 -0.013,-0.007c-0.032,0.022 -0.074,0.022 -0.1,0.019c-0.006,-0.001 -0.012,0.006 -0.008,0.012c0.008,0.013 0.006,0.027 0.006,0.027l0,0.32c0,0.004 0,0.006 -0.001,0.009Z" style="fill:#e8e5e4;fill-rule:nonzero;"/></g><g transform="matrix(100,0,0,100,744.308,391.878)"><path d="M0.286,-0.14c-0.008,-0.033 -0.029,-0.05 -0.054,-0.05c-0.019,0 -0.04,0.011 -0.058,0.031c-0.008,0.01 -0.009,0.023 -0.002,0.033c0.122,0.169 -0.183,0.081 -0.025,-0.044c0.013,-0.015 0.01,-0.025 0.01,-0.046l-0,-0.181l0.067,-0c0.007,-0 0.012,-0.006 0.012,-0.013l-0,-0.006c-0,-0.008 -0.005,-0.014 -0.012,-0.014l-0.067,0l-0,-0.154c-0,0 -0.001,-0.012 0.005,-0.026c0.003,-0.008 -0.004,-0.018 -0.013,-0.017c-0.027,0.001 -0.067,0 -0.098,-0.019c-0.01,-0.006 -0.02,0.001 -0.02,0.011l-0,0.205l-0.016,0c-0.007,0 -0.013,0.006 -0.013,0.014l-0,0.006c-0,0.007 0.006,0.013 0.013,0.013l0.016,-0l-0,0.181c-0.003,0.11 -0.004,0.209 0.148,0.216c-0,-0 0.139,-0.006 0.107,-0.14Z" style="fill:#e8e5e4;fill-rule:nonzero;"/></g><g transform="matrix(100,0,0,100,775.408,391.878)"><path d="M0.286,-0.14c-0.008,-0.033 -0.029,-0.05 -0.054,-0.05c-0.019,0 -0.04,0.011 -0.058,0.031c-0.008,0.01 -0.009,0.023 -0.002,0.033c0.122,0.169 -0.183,0.081 -0.025,-0.044c0.013,-0.015 0.01,-0.025 0.01,-0.046l-0,-0.181l0.067,-0c0.007,-0 0.012,-0.006 0.012,-0.013l-0,-0.006c-0,-0.008 -0.005,-0.014 -0.012,-0.014l-0.067,0l-0,-0.154c-0,0 -0.001,-0.012 0.005,-0.026c0.003,-0.008 -0.004,-0.018 -0.013,-0.017c-0.027,0.001 -0.067,0 -0.098,-0.019c-0.01,-0.006 -0.02,0.001 -0.02,0.011l-0,0.205l-0.016,0c-0.007,0 -0.013,0.006 -0.013,0.014l-0,0.006c-0,0.007 0.006,0.013 0.013,0.013l0.016,-0l-0,0.181c-0.003,0.11 -0.004,0.209 0.148,0.216c-0,-0 0.139,-0.006 0.107,-0.14Z" style="fill:#e8e5e4;fill-rule:nonzero;"/></g></g></svg>